<svg width="1488" height="1398" viewBox="0 0 1488 1398" fill="none" xmlns="http://www.w3.org/2000/svg">
<g clip-path="url(#clip0_209_4)">
<path d="M1154.63 297.288L1177.96 308.336C1168.39 294.986 1160.14 274.135 1155.73 257.543C1148.25 272.999 1136.21 291.909 1124.28 303.205L1148.94 296.863C1133.74 371.307 1076.6 424.75 1011.16 424.75L1010.23 427.439C1078.59 427.439 1139.11 374.737 1154.63 297.288Z" fill="#005163"/>
<path d="M1084.1 183.859H1231.51C1237.76 183.859 1242.84 188.944 1242.84 195.195C1242.84 201.446 1237.76 206.531 1231.51 206.531H1084.1C1077.85 206.531 1072.76 201.446 1072.76 195.195C1072.76 188.944 1077.85 183.859 1084.1 183.859Z" fill="#3F3D56"/>
<path d="M750.973 438.482C768.549 423.964 790.288 421.261 799.528 432.445C808.768 443.629 802.01 464.461 784.427 478.982C777.482 484.88 769.227 489.028 760.35 491.082L685.106 551.658L657.425 515.751L734.541 459.845C738.233 451.514 743.868 444.189 750.973 438.482Z" fill="#FFB6B6"/>
<path d="M316.071 575.16C316.033 572.481 316.058 549.113 333.362 534.343C353.24 517.376 381.289 524.243 391.126 526.652C413.852 532.216 415.716 541.962 437.057 551.977C476.985 570.713 426.957 561.123 450.715 555.115C458.939 553.035 577.25 544.832 606.7 526.711C663.976 491.467 703.002 470.094 703.002 470.094L728.515 521.107C728.515 521.107 691.624 572.39 639.704 610.382C586.445 649.353 559.816 668.838 519.346 676.367C515.861 677.015 430.151 691.646 361.117 640.083C345.371 628.322 316.521 606.772 316.071 575.16Z" fill="#E6E6E6"/>
<path opacity="0.2" d="M805.617 519.947C844.964 519.947 876.861 488.058 876.861 448.72C876.861 409.382 844.964 377.493 805.617 377.493C766.271 377.493 734.374 409.382 734.374 448.72C734.374 488.058 766.271 519.947 805.617 519.947Z" fill="#FF6D63"/>
<path d="M874.064 551.649C913.411 551.649 945.308 519.76 945.308 480.422C945.308 441.085 913.411 409.195 874.064 409.195C834.717 409.195 802.82 441.085 802.82 480.422C802.82 519.76 834.717 551.649 874.064 551.649Z" fill="white"/>
<path opacity="0.5" d="M874.064 551.649C913.411 551.649 945.308 519.76 945.308 480.422C945.308 441.085 913.411 409.195 874.064 409.195C834.717 409.195 802.82 441.085 802.82 480.422C802.82 519.76 834.717 551.649 874.064 551.649Z" fill="#FF6D63"/>
<path d="M946.312 585.113C985.659 585.113 1017.56 553.224 1017.56 513.886C1017.56 474.549 985.659 442.659 946.312 442.659C906.965 442.659 875.068 474.549 875.068 513.886C875.068 553.224 906.965 585.113 946.312 585.113Z" fill="white"/>
<path opacity="0.8" d="M946.312 585.113C985.659 585.113 1017.56 553.224 1017.56 513.886C1017.56 474.549 985.659 442.659 946.312 442.659C906.965 442.659 875.068 474.549 875.068 513.886C875.068 553.224 906.965 585.113 946.312 585.113Z" fill="#FF6D63"/>
<path d="M1010.96 615.054C1050.3 615.054 1082.2 583.165 1082.2 543.827C1082.2 504.49 1050.3 472.6 1010.96 472.6C971.609 472.6 939.712 504.49 939.712 543.827C939.712 583.165 971.609 615.054 1010.96 615.054Z" fill="#FF6D63"/>
<path d="M0.724365 1000.08C0.724365 1001.95 2.22683 1003.46 4.09781 1003.46H1484.63C1486.5 1003.46 1488 1001.95 1488 1000.08C1488 998.214 1486.5 996.712 1484.63 996.712H4.09781C2.22683 996.712 0.724365 998.214 0.724365 1000.08Z" fill="#FF6D63"/>
<path d="M395.211 445.424C444.295 445.424 484.085 405.643 484.085 356.571C484.085 307.499 444.295 267.718 395.211 267.718C346.127 267.718 306.337 307.499 306.337 356.571C306.337 405.643 346.127 445.424 395.211 445.424Z" fill="#FFB6B6"/>
<path d="M1091.24 953.52L999.711 859.853L952.464 909.126L1020.66 998.936L1088.29 1006.67L1091.24 953.52Z" fill="#FFB6B6"/>
<path d="M568.61 777.872C573.964 778.317 590.976 781.725 607.237 772.78C618.334 766.676 624.026 757.6 625.948 754.714C649.796 718.905 741.33 663.066 823.479 659.629C842.083 658.851 854.328 661.006 865.458 666.806C881.24 675.031 887.54 686.812 907.567 714.411C918.522 729.507 930.643 743.73 941.73 758.73C1006.64 846.546 1031.24 853.44 1028.73 881.594C1025.94 912.831 992.242 942.466 969.846 939.045C960.674 937.644 957.122 931.268 944.868 918.36C908.939 880.514 894.074 887.506 868.493 858.517C838.627 824.673 842.537 796.611 826.955 795.527C812.505 794.522 806.365 818.461 775.516 850.263C761.4 864.815 751.348 871.491 720.725 892.731C601.47 975.444 599.567 981.256 575.5 987.853C564.97 990.739 490.235 1011.22 463.612 978.625C421.951 927.612 520.373 773.865 568.61 777.872Z" fill="#2F2E41"/>
<path d="M1063.26 974.687C1069.99 971.665 1077.86 968.131 1080.39 960.006C1082.11 954.507 1081.12 947.728 1077.58 943.043C1073.49 937.638 1067.44 936.926 1067.69 935.97C1068.06 934.513 1082.36 935.083 1098.06 940.632C1101.03 941.679 1114.45 946.582 1131.52 959.909C1145.2 970.587 1143.36 972.728 1151.94 978.884C1178.28 997.783 1202.97 982.889 1217.22 1000.61C1222.72 1007.45 1225.07 1017.16 1222.75 1025.02C1218.11 1040.79 1195.5 1046.21 1183.15 1049.01C1153.4 1055.76 1130.89 1050.25 1107.38 1046.29C1027.42 1032.82 982.491 1045.09 976.478 1026.57C975.34 1023.07 977.189 1023.36 983.354 997.642C989.439 972.255 989.239 965.283 994.422 963.25C1002.22 960.19 1007.46 974.11 1027.11 978.874C1044.53 983.095 1058.9 976.645 1063.26 974.687Z" fill="#005163"/>
<path d="M928.517 1259.94L905.393 1131.05L838.622 1145.3L844.604 1257.9L896.228 1302.27L928.517 1259.94Z" fill="#FFB6B6"/>
<path d="M594.724 821.196C598.904 824.569 611.067 836.94 629.545 838.668C642.156 839.847 651.964 835.532 655.175 834.223C695.021 817.981 802.124 823.164 872.029 866.44C887.859 876.24 896.781 884.898 902.733 895.946C911.172 911.611 909.768 924.897 910.838 958.976C911.424 977.618 913.465 996.191 914.214 1014.83C918.598 1123.93 935.086 1143.45 917.192 1165.33C897.339 1189.61 852.811 1195.22 836.201 1179.81C829.398 1173.51 830.041 1166.24 827.151 1148.68C818.678 1097.19 802.451 1094.63 797.566 1056.28C791.863 1011.51 810.86 990.484 798.575 980.84C787.183 971.896 768.656 988.257 725.268 997.254C705.414 1001.37 693.348 1001.25 656.078 1001.63C510.943 1003.12 506.104 1006.87 482.484 998.812C472.15 995.289 398.805 970.283 395.086 928.362C389.266 862.762 557.06 790.799 594.724 821.196Z" fill="#2F2E41"/>
<path d="M893.475 1261.75C900.742 1263.03 909.24 1264.52 915.899 1259.22C920.405 1255.63 923.396 1249.47 923.097 1243.6C922.751 1236.84 918.146 1232.85 918.886 1232.2C920.012 1231.2 931.528 1239.7 941.403 1253.11C943.267 1255.64 951.62 1267.23 958.263 1287.85C963.585 1304.36 960.86 1305.1 964.5 1315.01C975.675 1345.43 1004.48 1346.97 1006.31 1369.64C1007.02 1378.38 1003.51 1387.74 997.182 1392.93C984.479 1403.37 962.73 1395.18 950.935 1390.56C922.53 1379.44 906.992 1362.24 889.762 1345.77C831.166 1289.73 787.101 1274.66 792.527 1255.96C793.554 1252.42 794.917 1253.71 814.465 1235.88C833.76 1218.29 837.51 1212.41 842.94 1213.64C851.114 1215.49 847.63 1229.95 861.214 1244.92C873.253 1258.19 888.766 1260.92 893.475 1261.75Z" fill="#005163"/>
<path d="M407.328 373.557C410.788 361.184 406.442 356.674 410.871 351.12C410.871 351.12 412.654 348.885 428.589 342.854C423.887 315.581 427.408 310.97 427.408 310.97C431.465 305.655 439.592 304.37 445.125 305.065C456.828 306.536 458.899 317.111 466.387 316.874C476.73 316.546 489.136 295.846 485.285 277.905C482.144 263.269 468.601 252.401 465.205 254.287C461.839 256.157 449.721 247.911 445.125 249.563C441.987 250.691 427.214 249.19 423.864 250.744C420.206 252.441 409.73 263.005 408.728 261.674C401.768 252.424 401.916 249.195 397.878 247.201C390.723 243.669 382.944 250.198 369.53 256.648C341.931 269.921 333.85 262.004 321.102 273.181C314.662 278.827 311.209 289.618 304.565 310.97C295.274 340.829 290.629 355.759 295.116 370.015C299.692 384.552 306.431 381.388 316.377 401.899C327.449 424.731 323.633 438.002 334.095 443.23C342.18 447.271 355.174 444.699 360.081 437.326C368.48 424.701 346.77 407.624 354.175 387.728C358.72 375.515 372.743 366.255 381.342 368.834C391.065 371.749 391.781 389.179 397.878 388.909C403.1 388.678 406.725 375.713 407.328 373.557Z" fill="#2F2E41"/>
<path d="M340.001 458.582C358.187 438.195 432.266 459.296 439.219 491.647C442.079 504.953 431.522 510.572 434.495 525.893C438.843 548.302 463.466 546.775 481.742 569.586C507.689 601.972 480.958 633.63 510.09 687.676C516.315 699.225 521.562 708.959 532.533 718.379C557.707 739.997 581.135 732.583 593.954 752.625C603.54 767.613 599.601 786.087 598.678 790.414C594.895 808.159 584.642 812.482 577.417 827.022C565.397 851.213 579.007 868.973 579.78 897.876C580.746 934.039 561.525 984.167 523.083 1000.61C479.896 1019.09 427.808 988.488 402.603 958.102C387.563 939.969 383.197 923.244 376.617 902.599C347.21 810.334 330.597 818.679 308.109 745.54C282.401 661.929 277.347 563.975 308.109 532.978C312.186 528.87 323.407 519.374 330.551 502.275C340.164 479.266 331.859 467.708 340.001 458.582Z" fill="#E6E6E6"/>
<path d="M917.613 537.43C922.084 566.783 901.836 594.3 872.477 598.77C843.117 603.24 815.594 582.996 811.123 553.644C806.652 524.291 826.9 496.774 856.26 492.304C885.619 487.834 913.142 508.078 917.613 537.43ZM816.728 552.79C820.728 579.054 845.354 597.166 871.623 593.166C897.893 589.167 916.009 564.547 912.009 538.284C908.008 512.02 883.383 493.908 857.113 497.908C830.844 501.907 812.727 526.527 816.728 552.79Z" fill="#3F3D56"/>
<path d="M836.787 549.737C839.103 564.942 853.36 575.428 868.568 573.112C883.777 570.796 894.266 556.543 891.95 541.338C889.633 526.133 875.377 515.647 860.168 517.962C844.959 520.278 834.471 534.531 836.787 549.737Z" fill="#005163"/>
<path d="M1079.33 92.9157C1086.03 136.936 1127.31 167.293 1171.34 160.59C1215.37 153.886 1245.73 112.621 1239.03 68.6013C1232.32 24.5815 1191.05 -5.77613 1147.02 0.927512C1102.99 7.63115 1072.62 48.8959 1079.33 92.9157Z" fill="#FF6D63"/>
<path d="M778.043 531.988C800.256 526.855 820.911 534.153 824.176 548.287C827.441 562.421 812.081 578.035 789.86 583.167C781.011 585.339 771.771 585.361 762.912 583.23L668.519 603.79L660.482 566.451L753.792 543.754C760.82 537.952 769.136 533.918 778.043 531.988Z" fill="#FFB6B6"/>
<path d="M327.184 557.836C327.769 555.221 333.217 532.496 353.477 522.144C376.75 510.251 402.439 523.438 411.449 528.063C432.263 538.747 431.814 548.659 450.249 563.351C484.739 590.838 529.092 590.236 553.597 589.904C562.079 589.788 588.274 588.923 621.126 578.128C685.019 557.132 725.837 530.785 725.837 530.785L742.608 587.596C742.608 587.596 693.131 642.261 633.81 667.171C572.96 692.724 399.407 694.41 358.295 692.346C354.755 692.168 411.116 697.606 355.934 631.437C343.347 616.344 320.285 588.69 327.184 557.836Z" fill="#E6E6E6"/>
</g>
<defs>
<clipPath id="clip0_209_4">
<rect width="1488" height="1398" fill="white"/>
</clipPath>
</defs>
</svg>
